<svg width="241" height="110" viewBox="0 0 241 110" fill="none" xmlns="http://www.w3.org/2000/svg">
<path d="M78.02 78.776V74.024C78.02 73.304 77.3 72.728 76.58 72.728H62.756V13.688C62.756 12.968 62.18 12.392 61.46 12.392H56.132C55.844 12.392 55.124 12.824 54.98 12.968L14.66 71C14.084 71.72 13.508 73.016 13.508 73.88V78.776C13.508 79.496 14.084 80.072 14.804 80.072H53.54V107.144C53.54 107.864 54.116 108.44 54.836 108.44H61.46C62.18 108.44 62.756 107.864 62.756 107.144V80.072H76.58C77.3 80.072 78.02 79.496 78.02 78.776ZM53.54 72.728H22.724L53.54 27.8V72.728ZM151.46 60.2C151.46 30.68 141.38 11.384 120.5 11.384C99.62 11.384 89.54 30.68 89.54 60.2C89.54 89.72 99.62 109.16 120.5 109.16C141.38 109.16 151.46 89.72 151.46 60.2ZM141.812 60.056C141.812 86.84 134.9 101.096 120.5 101.096C106.1 101.096 99.188 87.128 99.188 60.344C99.188 33.56 106.1 19.448 120.5 19.448C134.9 19.448 141.812 33.272 141.812 60.056ZM222.02 78.776V74.024C222.02 73.304 221.3 72.728 220.58 72.728H206.756V13.688C206.756 12.968 206.18 12.392 205.46 12.392H200.132C199.844 12.392 199.124 12.824 198.98 12.968L158.66 71C158.084 71.72 157.508 73.016 157.508 73.88V78.776C157.508 79.496 158.084 80.072 158.804 80.072H197.54V107.144C197.54 107.864 198.116 108.44 198.836 108.44H205.46C206.18 108.44 206.756 107.864 206.756 107.144V80.072H220.58C221.3 80.072 222.02 79.496 222.02 78.776ZM197.54 72.728H166.724L197.54 27.8V72.728Z" fill="#333333"/>
<path d="M120.871 66C127.435 66 132.956 70.268 134.704 76.0926C134.753 76.2665 134.76 76.4495 134.726 76.6269C134.692 76.8043 134.616 76.9712 134.505 77.1141C134.395 77.257 134.252 77.3721 134.089 77.4499C133.926 77.5278 133.747 77.5663 133.566 77.5625H108.174C107.994 77.5652 107.815 77.5258 107.653 77.4474C107.491 77.3691 107.349 77.2539 107.24 77.1112C107.13 76.9684 107.055 76.802 107.021 76.6251C106.987 76.4483 106.995 76.2659 107.043 76.0926C108.776 70.268 114.299 66 120.871 66Z" fill="#333333"/>
<path d="M110 57C112.761 57 115 54.7614 115 52C115 49.2386 112.761 47 110 47C107.239 47 105 49.2386 105 52C105 54.7614 107.239 57 110 57Z" fill="#333333"/>
<path d="M130.812 57C133.574 57 135.812 54.7614 135.812 52C135.812 49.2386 133.574 47 130.812 47C128.051 47 125.812 49.2386 125.812 52C125.812 54.7614 128.051 57 130.812 57Z" fill="#333333"/>
</svg>
