<svg width="575" height="100" viewBox="0 0 575 100" fill="none" xmlns="http://www.w3.org/2000/svg">
<path d="M14.7159 38.7097C14.7159 21.1238 25.6745 11.9667 37.155 11.9667C47.4874 11.9667 54.5844 18.2102 57.5067 27.5754C57.6111 27.9917 57.9242 28.3038 58.3416 28.3038H70.2396C70.8658 28.3038 71.2832 27.8876 71.2832 27.2633C71.0745 24.4537 69.509 20.3954 68.0479 17.4818C62.3076 6.2435 50.9315 0 36.6331 0C14.9246 0 0 16.9615 0 38.7097C0 60.5619 14.9246 77.4193 36.6331 77.4193C50.514 77.4193 61.7858 70.9677 67.6304 60.666C69.509 57.3361 71.2832 52.7575 71.2832 50.1561C71.2832 49.6358 70.8658 49.2196 70.2396 49.2196H58.3416C57.9242 49.2196 57.6111 49.5317 57.5067 49.948C54.5844 59.8335 47.4874 65.4527 37.155 65.4527C25.6745 65.4527 14.7159 56.2955 14.7159 38.7097Z" fill="#333333"/>
<path d="M119.86 42.7679C119.86 37.9813 118.712 33.6108 115.268 30.5931C113.076 28.7201 110.258 27.5754 106.918 27.5754C102.013 27.5754 97.6296 29.9688 94.6029 34.4433L93.9767 29.5525C93.8724 28.9282 93.4549 28.616 92.9331 28.616H83.5399C83.0181 28.616 82.6006 29.0323 82.6006 29.5525V75.1301C82.6006 75.6504 83.0181 76.0666 83.5399 76.0666H94.0811C94.6029 76.0666 95.0204 75.6504 95.0204 75.1301V47.2425C95.0204 38.8137 100.03 36.3163 103.161 36.3163C107.649 36.3163 108.484 40.3746 108.797 43.2882C108.901 43.8085 109.319 44.2248 109.736 44.2248H109.945L119.025 43.8085C119.442 43.8085 119.86 43.2882 119.86 42.7679Z" fill="#333333"/>
<path d="M170.987 53.6941V53.2778C170.987 39.0219 164.308 27.3673 148.548 27.3673C134.354 27.3673 124.335 37.8772 124.335 52.3413C124.335 65.9729 133.102 77.4193 148.548 77.4193C162.22 77.4193 168.482 68.7825 170.465 62.8512C170.57 62.6431 170.57 62.539 170.57 62.435C170.57 61.9147 170.152 61.4984 169.63 61.4984H159.82C159.507 61.4984 158.985 61.7066 158.88 62.0187C157.419 65.4527 154.288 68.7825 148.652 68.7825C141.138 68.7825 137.068 62.435 136.65 54.4225H170.048C170.465 54.4225 170.987 54.1103 170.987 53.6941ZM159.298 47.3465H136.755C137.903 41.103 141.66 36.0042 148.548 36.0042C154.393 36.0042 158.567 40.0624 159.298 47.3465Z" fill="#333333"/>
<path d="M227.389 74.6098V68.8866C227.389 68.4703 227.076 67.9501 226.554 67.9501C225.824 67.9501 224.154 68.0541 223.423 68.0541C221.544 68.0541 220.188 66.9095 220.188 64.6202V41.8314C220.188 31.6337 212.986 27.4714 201.193 27.4714C195.348 27.4714 190.756 28.9282 187.312 31.2175C182.615 34.3392 180.528 38.9178 180.423 44.5369C180.423 45.0572 180.841 45.4735 181.363 45.4735H191.173C191.695 45.4735 192.008 45.0572 192.008 44.641C192.321 39.23 194.931 35.5879 201.088 35.5879C205.159 35.5879 207.977 37.2529 207.977 41.8314C207.977 44.8491 207.663 45.6816 199.732 48.283L196.914 49.2196C188.355 52.0291 178.754 55.359 178.754 64.8283C178.754 72.2164 185.329 77.3153 194.409 77.3153C199.627 77.3153 205.576 75.4422 209.125 71.2799C210.795 75.3382 214.865 76.6909 219.457 76.6909C221.544 76.6909 224.78 76.0666 226.658 75.4422C227.076 75.3382 227.389 75.026 227.389 74.6098ZM207.977 60.3538C207.977 66.5973 204.115 69.3028 198.479 69.3028C194.304 69.3028 191.173 67.3257 191.173 63.8918C191.173 59.3132 194.513 57.7523 201.193 54.8387C203.28 54.0062 205.994 52.6535 207.977 51.5088V60.3538Z" fill="#333333"/>
<path d="M263.823 74.8179V68.3663C263.823 67.7419 263.406 67.4298 262.884 67.4298C261.84 67.4298 258.083 68.4703 255.265 68.4703C251.612 68.4703 249.525 67.2216 249.525 62.9553V37.461H262.884C263.406 37.461 263.823 37.0447 263.823 36.5244V29.5525C263.823 29.0323 263.406 28.616 262.884 28.616H249.525V15.0884C249.525 14.5682 249.107 14.1519 248.585 14.1519H238.044C237.522 14.1519 237.105 14.5682 237.105 15.0884V28.616H228.964C228.442 28.616 228.025 29.0323 228.025 29.5525V36.5244C228.025 37.0447 228.442 37.461 228.964 37.461H237.105V59.9376C237.105 71.6962 240.34 77.4193 251.717 77.4193C255.474 77.4193 263.823 76.4828 263.823 74.8179Z" fill="#333333"/>
<path d="M315.206 53.6941V53.2778C315.206 39.0219 308.527 27.3673 292.767 27.3673C278.573 27.3673 268.554 37.8772 268.554 52.3413C268.554 65.9729 277.321 77.4193 292.767 77.4193C306.44 77.4193 312.702 68.7825 314.685 62.8512C314.789 62.6431 314.789 62.539 314.789 62.435C314.789 61.9147 314.371 61.4984 313.85 61.4984H304.039C303.726 61.4984 303.204 61.7066 303.1 62.0187C301.639 65.4527 298.508 68.7825 292.872 68.7825C285.357 68.7825 281.287 62.435 280.869 54.4225H314.267C314.685 54.4225 315.206 54.1103 315.206 53.6941ZM303.517 47.3465H280.974C282.122 41.103 285.879 36.0042 292.767 36.0042C298.612 36.0042 302.787 40.0624 303.517 47.3465Z" fill="#333333"/>
<path d="M401.819 52.3413C401.819 36.4204 392.008 27.3673 380.423 27.3673C374.996 27.3673 369.36 29.6566 365.707 33.8189C365.603 33.1946 364.872 29.4485 364.872 29.4485C364.768 28.9282 364.455 28.616 363.933 28.616H354.958C354.436 28.616 354.018 29.0323 354.018 29.5525V99.0635C354.018 99.5838 354.436 100 354.958 100H365.499C366.021 100 366.438 99.5838 366.438 99.0635V71.384C370.613 76.1707 375.935 77.4193 380.632 77.4193C392.53 77.4193 401.819 67.4298 401.819 52.3413ZM389.295 52.3413C389.295 62.3309 385.12 68.5744 377.605 68.5744C371.448 68.5744 366.438 64.6202 366.438 57.232V47.4506C366.438 39.8543 371.761 36.3163 377.605 36.3163C384.598 36.3163 389.295 41.8314 389.295 52.3413Z" fill="#333333"/>
<path d="M459.696 52.2372C459.696 38.3975 450.511 27.3673 434.96 27.3673C420.036 27.3673 410.121 37.7731 410.121 52.2372C410.121 66.077 419.41 77.3153 434.96 77.3153C450.511 77.3153 459.696 66.077 459.696 52.2372ZM447.171 52.1332C447.171 61.4984 442.684 68.4703 434.856 68.4703C427.446 68.4703 422.749 61.7066 422.749 52.3413C422.749 43.7045 426.924 36.2123 435.065 36.2123C442.684 36.2123 447.171 42.1436 447.171 52.1332Z" fill="#333333"/>
<path d="M507.386 62.7471C507.386 50.7804 496.01 48.8033 487.556 46.3059C483.277 45.0572 479.624 43.8085 479.624 40.2705C479.624 37.3569 482.442 34.9636 487.034 34.9636C490.792 34.9636 495.175 37.0447 499.35 41.2071C499.558 41.4152 499.767 41.5192 500.08 41.5192C500.289 41.5192 500.498 41.5192 500.706 41.3111L505.612 36.0042C505.82 35.796 505.82 35.692 505.82 35.4839C505.82 35.1717 505.716 34.9636 505.507 34.7555C501.646 31.3215 495.801 27.1592 487.243 27.1592C474.406 27.1592 468.039 35.1717 468.039 41.6233C468.039 47.1384 470.231 50.6764 475.136 53.3819C478.267 55.0468 482.442 56.3996 486.095 57.3361C490.896 58.5848 495.592 59.6254 495.592 63.8918C495.592 67.1176 492.044 69.5109 487.243 69.5109C482.025 69.5109 476.702 66.1811 473.466 62.2268C473.258 62.0187 473.049 61.9147 472.736 61.9147C472.527 61.9147 472.214 62.0187 472.11 62.1228L466.787 67.3257C466.578 67.5338 466.578 67.7419 466.578 67.9501C466.578 68.1582 466.578 68.3663 466.682 68.5744C471.066 73.9854 478.059 77.5234 487.034 77.5234C500.706 77.5234 507.386 70.0312 507.386 62.7471Z" fill="#333333"/>
<path d="M547.879 74.8179V68.3663C547.879 67.7419 547.462 67.4298 546.94 67.4298C545.896 67.4298 542.139 68.4703 539.321 68.4703C535.668 68.4703 533.581 67.2216 533.581 62.9553V37.461H546.94C547.462 37.461 547.879 37.0447 547.879 36.5244V29.5525C547.879 29.0323 547.462 28.616 546.94 28.616H533.581V15.0884C533.581 14.5682 533.163 14.1519 532.641 14.1519H522.1C521.578 14.1519 521.161 14.5682 521.161 15.0884V28.616H513.02C512.498 28.616 512.081 29.0323 512.081 29.5525V36.5244C512.081 37.0447 512.498 37.461 513.02 37.461H521.161V59.9376C521.161 71.6962 524.396 77.4193 535.772 77.4193C539.53 77.4193 547.879 76.4828 547.879 74.8179Z" fill="#333333"/>
<path d="M575 2.4974C575 1.87304 574.583 1.45682 574.061 1.45682H560.389C559.867 1.45682 559.449 1.87304 559.449 2.4974C560.284 13.3195 560.597 37.2529 561.432 53.1738V54.2144C561.432 54.7346 561.954 55.1509 562.372 55.1509H572.078C572.6 55.1509 573.017 54.7346 573.017 54.2144V53.1738C573.852 37.2529 574.165 13.3195 575 2.4974ZM574.374 75.1301V62.3309C574.374 61.8106 574.061 61.2903 573.539 61.2903H560.91C560.389 61.2903 559.867 61.8106 559.867 62.3309V75.1301C559.867 75.6504 560.389 76.0666 560.91 76.0666H573.539C574.061 76.0666 574.374 75.6504 574.374 75.1301Z" fill="#333333"/>
</svg>
