<svg width="24" height="25" viewBox="0 0 24 25" fill="none" xmlns="http://www.w3.org/2000/svg">
<path d="M19.5 10.4645V19.6757C19.5 20.2778 19.2629 20.8552 18.841 21.281C18.419 21.7068 17.8467 21.9459 17.25 21.9459H6.75C6.15326 21.9459 5.58097 21.7068 5.15901 21.281C4.73705 20.8552 4.5 20.2778 4.5 19.6757V4.54053C4.5 3.93842 4.73705 3.36097 5.15901 2.93521C5.58097 2.50945 6.15326 2.27026 6.75 2.27026H11.3789C11.7766 2.27032 12.158 2.42973 12.4392 2.71344L19.0608 9.39466C19.342 9.67843 19.4999 10.0633 19.5 10.4645Z" stroke="#333333" stroke-linejoin="round"/>
<path d="M12 2.64865V8.32433C12 8.72574 12.158 9.1107 12.4393 9.39454C12.7206 9.67838 13.1022 9.83784 13.5 9.83784H19.125" stroke="#333333" stroke-linecap="round" stroke-linejoin="round"/>
<path d="M8.25 13.6216H15.75" stroke="#333333" stroke-linecap="round" stroke-linejoin="round"/>
<path d="M8.25 17.4054H15.75" stroke="#333333" stroke-linecap="round" stroke-linejoin="round"/>
</svg>
