<svg width="34" height="34" viewBox="0 0 34 34" fill="none" xmlns="http://www.w3.org/2000/svg">
<path d="M26.7787 10.2175L6.63311 30.3125H3.6875V27.3669L23.7831 7.22137L26.7787 10.2175Z" stroke="#BDBDBD"/>
<path d="M28.2649 8.71699L25.2831 5.73526L27.0206 4.0527L27.0206 4.05277L27.0274 4.04599C27.2449 3.82715 27.6084 3.68751 27.957 3.68751L27.9583 3.6875C28.1195 3.68708 28.2792 3.71859 28.4281 3.7802C28.5771 3.84181 28.7123 3.93231 28.8261 4.04647L28.8267 4.04708L29.9556 5.17598L29.9557 5.17604C30.0693 5.28961 30.1593 5.42454 30.2205 5.57304C30.2818 5.72155 30.313 5.88071 30.3125 6.04135V6.04298C30.3125 6.39374 30.1729 6.7551 29.9529 6.97505L29.9529 6.975L29.9474 6.98065L28.2649 8.71699Z" stroke="#BDBDBD"/>
</svg>
