<svg width="20" height="20" viewBox="0 0 20 20" fill="none" xmlns="http://www.w3.org/2000/svg">
<path d="M8.53322 1.28218C8.98036 1.20898 9.43685 1.17187 9.88997 1.17187C13.2387 1.17187 16.2482 3.16291 17.5785 6.1909L17.1497 6.00992C16.8516 5.88402 16.5079 6.02375 16.3821 6.32191C16.2562 6.62004 16.3959 6.96374 16.6941 7.08956L18.4466 7.82929C18.5194 7.86003 18.5969 7.87542 18.6745 7.87542C18.7494 7.87542 18.8244 7.86104 18.8951 7.83229C19.0391 7.77378 19.1539 7.6605 19.2143 7.5173L19.9539 5.76473C20.0797 5.46661 19.9401 5.1229 19.6419 4.99708C19.3438 4.87126 19.0001 5.01094 18.8742 5.30911L18.6764 5.77785C17.1738 2.29463 13.7274 0 9.88997 0C9.3736 0 8.85345 0.0423044 8.34388 0.125702C8.02455 0.177968 7.80803 0.479216 7.86033 0.798589C7.91264 1.11796 8.21404 1.33452 8.53322 1.28218Z" fill="#333333"/>
<path d="M10.6262 18.8122C10.4551 18.8227 10.2815 18.828 10.1102 18.828C6.7084 18.828 3.65658 16.7733 2.35976 13.6641L2.8505 13.8712C3.14862 13.9971 3.49233 13.8573 3.61815 13.5592C3.74401 13.2611 3.60432 12.9174 3.30616 12.7916L1.55351 12.0519C1.41031 11.9914 1.24902 11.9904 1.10508 12.0489C0.961093 12.1074 0.846289 12.2207 0.78586 12.3639L0.0462548 14.1164C-0.0795648 14.4146 0.0601219 14.7583 0.358284 14.8841C0.432659 14.9155 0.509885 14.9303 0.585861 14.9303C0.814375 14.9303 1.03152 14.7958 1.12594 14.5721L1.29859 14.163C2.78761 17.6793 6.25114 19.9999 10.1102 19.9999C10.3054 19.9999 10.5033 19.9938 10.6982 19.9818C11.0212 19.9619 11.2669 19.684 11.247 19.361C11.2272 19.038 10.9493 18.7921 10.6262 18.8122Z" fill="#333333"/>
<path d="M2.85934 6.82601C2.855 6.8548 2.85203 6.88406 2.85203 6.91406V7.77343H2.34422C2.02063 7.77343 1.75829 8.03577 1.75829 8.35936C1.75829 8.68295 2.02063 8.94529 2.34422 8.94529H2.85203V9.84373C2.85203 10.1673 3.11438 10.4297 3.43797 10.4297C3.76156 10.4297 4.0239 10.1673 4.0239 9.84373V8.94529H4.53171C4.8553 8.94529 5.11764 8.68295 5.11764 8.35936C5.11764 8.03577 4.8553 7.77343 4.53171 7.77343H4.0239V6.91406C4.0239 6.88406 4.02093 6.8548 4.0166 6.82601C5.63745 6.55011 6.87545 5.13575 6.87545 3.43748C6.87545 1.54206 5.33338 0 3.43797 0C1.54255 0 0.000488281 1.54206 0.000488281 3.43748C0.000488281 5.13575 1.23849 6.55007 2.85934 6.82601ZM3.43797 1.17187C4.68722 1.17187 5.70358 2.18823 5.70358 3.43748C5.70358 4.68673 4.68722 5.70309 3.43797 5.70309C2.18872 5.70309 1.17236 4.68673 1.17236 3.43748C1.17236 2.18823 2.18872 1.17187 3.43797 1.17187Z" fill="#333333"/>
<path d="M19.7878 11.3842C19.6804 11.2545 19.5181 11.1719 19.3366 11.1719H17.1441C16.8205 11.1719 16.5582 11.4342 16.5582 11.7578C16.5582 12.0814 16.8205 12.3437 17.1441 12.3437H17.958L16.6464 13.7123C16.0978 13.3416 15.437 13.1249 14.7265 13.1249C12.8311 13.1249 11.2891 14.667 11.2891 16.5624C11.2891 18.4578 12.8311 19.9999 14.7265 19.9999C16.622 19.9999 18.164 18.4578 18.164 16.5624C18.164 15.7997 17.9142 15.0943 17.4922 14.5235L18.828 13.1296V14.0277C18.828 14.3513 19.0904 14.6137 19.414 14.6137C19.7376 14.6137 19.9999 14.3513 19.9999 14.0277V11.8353C19.9999 11.6538 19.9174 11.4916 19.7878 11.3842ZM14.7265 18.828C13.4773 18.828 12.4609 17.8117 12.4609 16.5624C12.4609 15.3132 13.4773 14.2968 14.7265 14.2968C15.9758 14.2968 16.9922 15.3132 16.9922 16.5624C16.9922 17.8117 15.9758 18.828 14.7265 18.828Z" fill="#333333"/>
</svg>
