<svg width="30" height="30" viewBox="0 0 30 30" fill="none" xmlns="http://www.w3.org/2000/svg">
<path d="M27.2569 12.5519H26.25V12.5H15V17.5H22.0644C21.0337 20.4106 18.2644 22.5 15 22.5C10.8581 22.5 7.5 19.1419 7.5 15C7.5 10.8581 10.8581 7.50001 15 7.50001C16.9119 7.50001 18.6512 8.22126 19.9756 9.39938L23.5112 5.86376C21.2787 3.78313 18.2925 2.50001 15 2.50001C8.09687 2.50001 2.5 8.09688 2.5 15C2.5 21.9031 8.09687 27.5 15 27.5C21.9031 27.5 27.5 21.9031 27.5 15C27.5 14.1619 27.4137 13.3438 27.2569 12.5519Z" fill="#FFC107"/>
<path d="M15 27.5C18.2287 27.5 21.1625 26.2644 23.3806 24.255L19.5118 20.9812C18.2147 21.9677 16.6296 22.5013 15 22.5C11.7487 22.5 8.98808 20.4269 7.94808 17.5337L3.87183 20.6744C5.94058 24.7225 10.1418 27.5 15 27.5Z" fill="#4CAF50"/>
<path d="M27.2569 12.5519H26.25V12.5H15V17.5H22.0644C21.5714 18.8852 20.6834 20.0957 19.51 20.9819L19.5119 20.9806L23.3806 24.2544C23.1069 24.5031 27.5 21.25 27.5 15C27.5 14.1619 27.4138 13.3437 27.2569 12.5519Z" fill="#1976D2"/>
<path d="M3.94116 9.18188L8.04804 12.1938C9.15929 9.44251 11.8505 7.50001 14.9999 7.50001C16.9118 7.50001 18.6512 8.22126 19.9755 9.39938L23.5112 5.86376C21.2787 3.78313 18.2924 2.50001 14.9999 2.50001C10.1987 2.50001 6.03491 5.21063 3.94116 9.18188Z" fill="#FF3D00"/>
</svg>
