<svg width="34" height="34" viewBox="0 0 34 34" fill="none" xmlns="http://www.w3.org/2000/svg">
<path d="M5.3125 21.25V9.5625C5.3125 8.99891 5.53638 8.45841 5.9349 8.0599C6.33341 7.66138 6.87391 7.4375 7.4375 7.4375V7.4375C8.00109 7.4375 8.54159 7.66138 8.9401 8.0599C9.33862 8.45841 9.5625 8.99891 9.5625 9.5625V17" stroke="#6EA7F4" stroke-linecap="round" stroke-linejoin="round"/>
<path d="M9.5625 17V5.3125C9.5625 4.74891 9.78638 4.20841 10.1849 3.8099C10.5834 3.41138 11.1239 3.1875 11.6875 3.1875C12.2511 3.1875 12.7916 3.41138 13.1901 3.8099C13.5886 4.20841 13.8125 4.74891 13.8125 5.3125V15.9375" stroke="#6EA7F4" stroke-linecap="round" stroke-linejoin="round"/>
<path d="M18.0625 16.0039V6.375C18.0625 5.81141 18.2864 5.27091 18.6849 4.8724C19.0834 4.47388 19.6239 4.25 20.1875 4.25V4.25C20.7511 4.25 21.2916 4.47388 21.6901 4.8724C22.0886 5.27091 22.3125 5.81141 22.3125 6.375V21.25" stroke="#6EA7F4" stroke-linecap="round" stroke-linejoin="round"/>
<path d="M13.8125 15.9375V3.1875C13.8125 2.62391 14.0364 2.08341 14.4349 1.6849C14.8334 1.28638 15.3739 1.0625 15.9375 1.0625C16.5011 1.0625 17.0416 1.28638 17.4401 1.6849C17.8386 2.08341 18.0625 2.62391 18.0625 3.1875V15.9375" stroke="#6EA7F4" stroke-linecap="round" stroke-linejoin="round"/>
<path d="M5.3125 21.25C5.3125 29.0461 9.5625 32.9375 15.4062 32.9375C21.25 32.9375 23.6214 30.3078 24.9688 27.0937L28.469 17.5312C28.9113 16.3326 28.7107 15.221 27.6808 14.6359C26.6502 14.0502 25.2961 14.3517 24.7383 15.4116L22.3125 21.25" stroke="#6EA7F4" stroke-linecap="round" stroke-linejoin="round"/>
</svg>
