<svg width="30" height="28" viewBox="0 0 30 28" fill="none" xmlns="http://www.w3.org/2000/svg">
<path d="M22.8766 27.7501C22.65 27.751 22.4265 27.6976 22.2249 27.5943L14.9999 23.8118L7.77491 27.5943C7.5403 27.7177 7.27578 27.7727 7.01143 27.7532C6.74708 27.7338 6.4935 27.6405 6.27951 27.4841C6.06553 27.3276 5.89972 27.1143 5.80094 26.8683C5.70217 26.6224 5.67438 26.3536 5.72074 26.0926L7.13741 18.1168L1.30074 12.4501C1.11864 12.2684 0.989459 12.0405 0.927064 11.7909C0.864668 11.5414 0.871413 11.2795 0.946574 11.0335C1.02868 10.7817 1.17972 10.558 1.38255 10.3877C1.58538 10.2174 1.83188 10.1074 2.09407 10.0701L10.1691 8.89429L13.7249 1.62679C13.8409 1.38728 14.022 1.18528 14.2475 1.04394C14.473 0.9026 14.7338 0.827637 14.9999 0.827637C15.266 0.827637 15.5268 0.9026 15.7523 1.04394C15.9778 1.18528 16.1589 1.38728 16.2749 1.62679L19.8732 8.88013L27.9482 10.056C28.2104 10.0932 28.4569 10.2032 28.6598 10.3735C28.8626 10.5438 29.0136 10.7675 29.0957 11.0193C29.1709 11.2653 29.1776 11.5272 29.1153 11.7768C29.0529 12.0264 28.9237 12.2542 28.7416 12.436L22.9049 18.1026L24.3216 26.0785C24.3722 26.3441 24.3457 26.6186 24.2453 26.8696C24.1448 27.1206 23.9747 27.3377 23.7549 27.4951C23.4984 27.6749 23.1895 27.7646 22.8766 27.7501Z" fill="#6EA7F4"/>
</svg>
