<svg width="48" height="48" viewBox="0 0 48 48" fill="none" xmlns="http://www.w3.org/2000/svg">
<path d="M21.5094 43.3391C20.5074 44.133 19.3688 44.7307 18.0269 45.1672C17.5015 45.3381 17.2144 45.9026 17.3853 46.4279C17.523 46.8498 17.9146 47.1184 18.3365 47.1184C18.439 47.1184 18.5435 47.1028 18.646 47.0696C20.1958 46.5657 21.5767 45.8382 22.7515 44.9074C23.1842 44.5636 23.2574 43.9347 22.9147 43.5021C22.5689 43.0705 21.941 42.9934 21.5094 43.3391Z" fill="#333333"/>
<path d="M27.1477 36.0411C26.6301 35.8399 26.0539 36.0968 25.8538 36.6124C25.4055 37.7706 24.845 39.1211 24.0891 40.3584C23.801 40.8301 23.9504 41.4454 24.4212 41.7335C24.5843 41.8331 24.7639 41.88 24.9417 41.88C25.2786 41.88 25.6077 41.71 25.7962 41.4015C26.6341 40.0284 27.2385 38.5753 27.719 37.3351C27.9182 36.8203 27.6624 36.2412 27.1477 36.0411Z" fill="#333333"/>
<path d="M30.6096 28.8212C28.9593 29.7577 28.0423 31.3836 27.4953 32.5243C27.2561 33.0224 27.466 33.62 27.9641 33.8583C28.1038 33.9257 28.2513 33.9569 28.3957 33.9569C28.7688 33.9569 29.1262 33.7479 29.2981 33.3895C29.9924 31.9413 30.7014 31.0692 31.5978 30.5594C32.0774 30.2869 32.2463 29.6765 31.9728 29.1961C31.7014 28.7157 31.093 28.5468 30.6096 28.8212Z" fill="#333333"/>
<path d="M39.6288 26.3457C39.1746 26.0381 38.5506 26.1562 38.24 26.6133C37.911 27.0996 37.2371 27.7685 35.199 27.9512C34.6491 28.001 34.2429 28.4863 34.2927 29.0371C34.3396 29.5566 34.7761 29.9472 35.2879 29.9472C35.3181 29.9472 35.3484 29.9463 35.3787 29.9433C37.5438 29.7489 39.0213 29.0263 39.8963 27.7342C40.206 27.2773 40.0858 26.6553 39.6288 26.3457Z" fill="#333333"/>
<path d="M12 22C8.69138 22 6 24.6914 6 28C6 31.3086 8.69138 34 12 34C15.3086 34 18 31.3086 18 28C18 24.6914 15.3086 22 12 22ZM12 31.9999C9.79397 31.9999 7.99997 30.206 7.99997 27.9999C7.99997 25.7938 9.79397 24 12 24C14.206 24 16 25.7939 16 28C16 30.2061 14.206 31.9999 12 31.9999Z" fill="#6EA7F4"/>
<path d="M14.3695 46.0129C17.5249 42.6481 24 34.9069 24 28C24 21.2715 18.7285 16 12 16C5.27147 16 0 21.2715 0 28C0 36.9306 10.8516 47.29 11.3135 47.7266C11.5058 47.9092 11.753 48.0001 12 48.0001C12.7285 48.0001 13.4209 47.9747 14.0771 47.9249C14.6279 47.8829 15.041 47.4033 14.999 46.8526C14.969 46.4583 14.7139 46.1509 14.3695 46.0129ZM12 45.5898C9.63769 43.1797 1.99997 34.8555 1.99997 28C1.99997 22.3925 6.39262 18 12 18C17.6074 18 22 22.3925 22 28C22 34.8555 14.3623 43.1796 12 45.5898Z" fill="#6EA7F4"/>
<path d="M40 0C35.5888 0 32 3.58884 32 7.99997C32 11.8263 37.669 19.5705 38.9972 21.3331C38.9968 21.9024 38.9972 22.4615 38.9834 22.9746C38.9688 23.5263 39.4044 23.9863 39.957 24.0009C39.9658 24.0009 39.9747 24.0009 39.9844 24.0009C40.5235 24.0009 40.9688 23.5702 40.9834 23.0273C40.9972 22.5008 40.9968 21.9262 40.9972 21.3406C42.3166 19.5901 47.9999 11.8308 47.9999 7.99997C47.9999 3.58884 44.4111 0 40 0ZM40 19.3262C37.8017 16.3018 34 10.5459 34 7.99997C34 4.69134 36.6913 1.99997 40 1.99997C43.3086 1.99997 46 4.69134 46 7.99997C46 10.5459 42.1982 16.3017 40 19.3262Z" fill="#333333"/>
<path d="M40 6C38.8975 6 38 6.89747 38 7.99997C38 9.10247 38.8975 9.99994 40 9.99994C41.1025 9.99994 41.9999 9.10256 41.9999 7.99997C41.9999 6.89747 41.1025 6 40 6Z" fill="#333333"/>
</svg>
