<svg width="103" height="20" viewBox="0 0 103 20" fill="none" xmlns="http://www.w3.org/2000/svg">
<path d="M42.9159 9.57C42.9159 6.528 41.131 3.252 36.5338 3.252H31.9005C31.8104 3.252 31.7383 3.324 31.7383 3.414V15.996C31.7383 16.086 31.8104 16.158 31.9005 16.158H36.5338C40.7885 16.158 42.9159 13.098 42.9159 9.57ZM40.3017 9.57C40.3017 12.648 38.6612 14.25 36.3896 14.25H34.1541V5.178H36.4978C38.7693 5.178 40.3017 6.852 40.3017 9.57Z" fill="white"/>
<path d="M55.6147 16.014C55.6147 15.996 55.6147 15.96 55.5967 15.942L50.9454 3.36C50.9273 3.306 50.8552 3.252 50.8011 3.252H48.3132C48.2591 3.252 48.187 3.306 48.169 3.36L43.3915 15.942C43.3735 15.96 43.3735 15.996 43.3735 16.014C43.3735 16.104 43.4456 16.158 43.5537 16.158H45.4648C45.5188 16.158 45.5909 16.104 45.609 16.05L46.871 12.666H51.6485L52.8744 16.05C52.8924 16.104 52.9826 16.158 53.0367 16.158H55.4344C55.5426 16.158 55.6147 16.104 55.6147 16.014ZM51.1076 10.938H47.4479L49.2868 5.826L51.1076 10.938Z" fill="white"/>
<path d="M66.8586 12.522C66.8586 11.316 66.2997 10.29 65.0197 9.57C64.0462 9.012 62.9284 8.688 61.7386 8.328C60.5848 7.986 59.449 7.572 59.449 6.492C59.449 5.538 60.2783 4.818 61.7566 4.818C62.8203 4.818 64.0101 5.304 65.1099 6.6C65.1459 6.636 65.182 6.654 65.2361 6.654C65.2721 6.654 65.3082 6.654 65.3442 6.618L66.5341 5.34C66.5702 5.304 66.5882 5.268 66.5882 5.232C66.5882 5.196 66.5521 5.16 66.5341 5.124C65.2541 3.63 63.7397 3 61.7746 3C58.7819 3 57.1413 4.89 57.1413 6.852C57.1413 7.86 57.556 8.832 58.5656 9.534C59.3769 10.092 60.4225 10.452 61.6124 10.758C62.8924 11.1 64.4068 11.604 64.4068 12.846C64.4068 13.764 63.5414 14.574 61.7746 14.574C60.5126 14.574 59.1966 13.728 58.3132 12.468C58.2771 12.432 58.223 12.378 58.169 12.378C58.1329 12.378 58.1149 12.378 58.0968 12.396L56.6365 13.512C56.5825 13.548 56.5825 13.584 56.5825 13.638C56.5825 13.674 56.5825 13.71 56.6005 13.728C57.7904 15.528 59.5391 16.41 61.7746 16.41C64.7493 16.41 66.8586 14.844 66.8586 12.522Z" fill="white"/>
<path d="M82.8757 15.996V3.414C82.8757 3.324 82.8036 3.252 82.7134 3.252H79.9371C79.883 3.252 79.8109 3.324 79.7928 3.36C78.5128 6.474 77.2508 9.588 75.9708 12.684H75.9528L72.0767 3.36C72.0587 3.324 71.9866 3.252 71.9325 3.252H69.102C69.0119 3.252 68.9398 3.324 68.9398 3.414V15.996C68.9398 16.086 69.0119 16.158 69.102 16.158H70.8508C70.9409 16.158 71.013 16.086 71.013 15.996V6.492L74.9612 16.05C74.9793 16.122 75.0514 16.158 75.1055 16.158H76.3134C76.3674 16.158 76.4396 16.122 76.4756 16.05L80.3517 6.474H80.3697V15.996C80.3697 16.086 80.4599 16.158 80.55 16.158H82.7134C82.8036 16.158 82.8757 16.086 82.8757 15.996Z" fill="white"/>
<path d="M87.9788 15.996V3.414C87.9788 3.324 87.8887 3.252 87.7985 3.252H85.6171C85.527 3.252 85.4549 3.324 85.4549 3.414V15.996C85.4549 16.086 85.527 16.158 85.6171 16.158H87.7985C87.8887 16.158 87.9788 16.086 87.9788 15.996Z" fill="white"/>
<path d="M103 9.678C103 6.042 100.638 3 96.4919 3C92.2191 3 89.9836 6.294 89.9836 9.678C89.9836 13.368 92.3634 16.41 96.4919 16.41C100.548 16.41 103 13.26 103 9.678ZM96.4738 5.07C98.9077 5.07 100.476 6.87 100.476 9.66C100.476 12.378 98.9077 14.322 96.4738 14.322C94.04 14.322 92.5076 12.27 92.5076 9.66C92.5076 7.104 93.9859 5.07 96.4738 5.07Z" fill="white"/>
<path d="M9.57407 0C6.55949 0 4.21017 0.661761 2.5261 1.98528C0.842034 3.3088 0 5.17441 0 7.58209C0 9.99681 0.842034 11.8765 2.5261 13.2211C4.21017 14.5658 6.55949 15.2381 9.57407 15.2381H17.0268V0H9.57407ZM13.426 12.936H9.95089C7.92256 12.936 6.36876 12.4784 5.28946 11.5632C4.21017 10.648 3.67052 9.32449 3.67052 7.59265C3.67052 5.88897 4.21482 4.57952 5.30342 3.66432C6.39202 2.75616 7.94117 2.30208 9.95089 2.30208H13.426V12.936Z" fill="white"/>
<path d="M14.4635 4.76196C17.4781 4.76196 19.8274 5.42372 21.5115 6.74724C23.1956 8.07077 24.0376 9.93637 24.0376 12.3441C24.0376 14.7588 23.1956 16.6385 21.5115 17.9831C19.8274 19.3277 17.4781 20.0001 14.4635 20.0001H7.01083V4.76196H14.4635ZM10.6116 17.698H14.0867C16.115 17.698 17.6688 17.2404 18.7481 16.3252C19.8274 15.41 20.3671 14.0865 20.3671 12.3546C20.3671 10.6509 19.8228 9.34149 18.7342 8.42629C17.6456 7.51813 16.0964 7.06405 14.0867 7.06405H10.6116V17.698Z" fill="white"/>
</svg>
