<svg width="24" height="24" viewBox="0 0 24 24" fill="none" xmlns="http://www.w3.org/2000/svg">
<path d="M20.276 6.98338L17.9244 9.42916L14.1429 5.4962L16.4945 3.05043C16.5881 2.95295 16.6992 2.87561 16.8215 2.82285C16.9439 2.77008 17.075 2.74292 17.2074 2.74292C17.3399 2.74292 17.471 2.77008 17.5933 2.82285C17.7157 2.87561 17.8268 2.95295 17.9204 3.05043L20.276 5.5004C20.3697 5.59771 20.444 5.71329 20.4948 5.84053C20.5455 5.96776 20.5716 6.10415 20.5716 6.24189C20.5716 6.37963 20.5455 6.51602 20.4948 6.64325C20.444 6.77049 20.3697 6.88607 20.276 6.98338ZM3.42877 16.6385L13.5782 6.08352L17.3597 10.0165L7.21024 20.5715H3.42978V16.6385H3.42877ZM15.8905 10.0637L13.5359 7.61371L4.43817 17.0748V19.5248H6.79377L15.8905 10.0637Z" fill="white"/>
</svg>
