<svg width="64" height="64" viewBox="0 0 64 64" fill="none" xmlns="http://www.w3.org/2000/svg">
<path d="M53.4601 43.9287C50.2501 40 47.9839 38 47.9839 27.1688C47.9839 17.25 42.9189 13.7162 38.7501 12C38.1964 11.7725 37.6751 11.25 37.5064 10.6812C36.7751 8.1925 34.7251 6 32.0001 6C29.2751 6 27.2239 8.19375 26.5001 10.6838C26.3314 11.2588 25.8101 11.7725 25.2564 12C21.0826 13.7188 16.0226 17.24 16.0226 27.1688C16.0164 38 13.7501 40 10.5401 43.9287C9.21013 45.5562 10.3751 48 12.7014 48H51.3114C53.6251 48 54.7826 45.5487 53.4601 43.9287Z" stroke="#828282" stroke-width="2" stroke-linecap="round" stroke-linejoin="round"/>
<path d="M40 48V50C40 52.1217 39.1571 54.1566 37.6569 55.6569C36.1566 57.1571 34.1217 58 32 58C29.8783 58 27.8434 57.1571 26.3431 55.6569C24.8429 54.1566 24 52.1217 24 50V48" stroke="#828282" stroke-width="2" stroke-linecap="round" stroke-linejoin="round"/>
</svg>
