<svg width="295" height="111" viewBox="0 0 295 111" fill="none" xmlns="http://www.w3.org/2000/svg">
<path d="M83.7063 42.8522C83.7063 19.5203 68.5186 0 41.8531 0C14.3761 0 0 21.1374 0 42.8522C0 66.5307 15.3036 86.051 41.8531 86.051C67.9389 86.051 83.7063 65.8377 83.7063 42.8522ZM41.7372 13.283C57.3887 13.283 67.4752 24.8335 67.4752 42.7367C67.4752 60.1779 57.3887 72.6524 41.7372 72.6524C26.0858 72.6524 16.2311 59.4849 16.2311 42.7367C16.2311 26.3351 25.7379 13.283 41.7372 13.283Z" fill="#333333"/>
<path d="M147.327 57.9834C147.327 42.6212 137.125 30.3777 119.85 30.3777C103.272 30.3777 92.2575 41.9282 92.2575 57.9834C92.2575 73.3455 102.576 85.82 119.85 85.82C137.125 85.82 147.327 73.3455 147.327 57.9834ZM133.415 57.8678C133.415 68.2633 128.43 76.0021 119.735 76.0021C111.503 76.0021 106.286 68.4943 106.286 58.0989C106.286 48.512 110.923 40.1956 119.966 40.1956C128.43 40.1956 133.415 46.7794 133.415 57.8678Z" fill="#333333"/>
<path d="M211.086 58.0989C211.086 40.4266 200.188 30.3777 187.319 30.3777C181.291 30.3777 175.03 32.9188 170.972 37.539C170.856 36.846 170.045 32.6878 170.045 32.6878C169.929 32.1103 169.581 31.7638 169.001 31.7638H159.031C158.451 31.7638 157.987 32.2258 157.987 32.8033V109.96C157.987 110.538 158.451 111 159.031 111H170.74C171.32 111 171.784 110.538 171.784 109.96V79.2362C176.421 84.5494 182.334 85.9355 187.551 85.9355C200.768 85.9355 211.086 74.847 211.086 58.0989ZM197.174 58.0989C197.174 69.1873 192.536 76.1176 184.189 76.1176C177.349 76.1176 171.784 71.7284 171.784 63.5276V52.6701C171.784 44.2383 177.697 40.3111 184.189 40.3111C191.957 40.3111 197.174 46.4329 197.174 58.0989Z" fill="#333333"/>
<path d="M264.047 69.6493C264.047 56.3663 251.41 54.1717 242.019 51.3996C237.265 50.0135 233.208 48.6275 233.208 44.7003C233.208 41.4662 236.338 38.8096 241.439 38.8096C245.613 38.8096 250.482 41.1197 255.12 45.7399C255.351 45.9709 255.583 46.0864 255.931 46.0864C256.163 46.0864 256.395 46.0864 256.627 45.8554L262.076 39.9646C262.308 39.7336 262.308 39.6181 262.308 39.3871C262.308 39.0406 262.192 38.8096 261.96 38.5786C257.67 34.7669 251.178 30.1467 241.671 30.1467C227.411 30.1467 220.339 39.0406 220.339 46.2019C220.339 52.3236 222.773 56.2508 228.222 59.2539C231.7 61.102 236.338 62.6035 240.396 63.6431C245.729 65.0291 250.946 66.1842 250.946 70.9199C250.946 74.5005 247.004 77.1571 241.671 77.1571C235.874 77.1571 229.961 73.461 226.367 69.0718C226.135 68.8408 225.904 68.7253 225.556 68.7253C225.324 68.7253 224.976 68.8408 224.86 68.9563L218.947 74.7315C218.715 74.9625 218.715 75.1936 218.715 75.4246C218.715 75.6556 218.715 75.8866 218.831 76.1176C223.701 82.1238 231.469 86.051 241.439 86.051C256.627 86.051 264.047 77.7346 264.047 69.6493Z" fill="#333333"/>
<path d="M295 2.77211C295 2.07908 294.536 1.61707 293.957 1.61707H278.769C278.189 1.61707 277.725 2.07908 277.725 2.77211C278.653 14.7846 279.001 41.3507 279.928 59.0229V60.1779C279.928 60.7555 280.508 61.2175 280.972 61.2175H291.754C292.333 61.2175 292.797 60.7555 292.797 60.1779V59.0229C293.725 41.3507 294.073 14.7846 295 2.77211ZM294.304 83.3944V69.1873C294.304 68.6098 293.957 68.0323 293.377 68.0323H279.349C278.769 68.0323 278.189 68.6098 278.189 69.1873V83.3944C278.189 83.9719 278.769 84.4339 279.349 84.4339H293.377C293.957 84.4339 294.304 83.9719 294.304 83.3944Z" fill="#333333"/>
</svg>
