<svg width="32" height="32" viewBox="0 0 32 32" fill="none" xmlns="http://www.w3.org/2000/svg">
<path d="M28.5867 14.7333L16.3334 26.9866C14.8323 28.4878 12.7963 29.3311 10.6734 29.3311C8.55048 29.3311 6.51452 28.4878 5.01339 26.9866C3.51227 25.4855 2.66895 23.4496 2.66895 21.3266C2.66895 19.2037 3.51227 17.1678 5.01339 15.6666L17.2667 3.41331C18.2675 2.41256 19.6248 1.85034 21.0401 1.85034C22.4553 1.85034 23.8126 2.41256 24.8134 3.41331C25.8141 4.41406 26.3764 5.77137 26.3764 7.18664C26.3764 8.60192 25.8141 9.95922 24.8134 10.96L12.5467 23.2133C12.0464 23.7137 11.3677 23.9948 10.6601 23.9948C9.95242 23.9948 9.27377 23.7137 8.7734 23.2133C8.27302 22.7129 7.99191 22.0343 7.99191 21.3266C7.99191 20.619 8.27302 19.9404 8.7734 19.44L20.0934 8.13331" stroke="#BDBDBD" stroke-linecap="round" stroke-linejoin="round"/>
</svg>
