<svg width="32" height="32" viewBox="0 0 32 32" fill="none" xmlns="http://www.w3.org/2000/svg">
<g clip-path="url(#clip0)">
<path d="M5.89388 4.94079L30.2621 15.9279C30.3503 15.9673 30.4251 16.0314 30.4777 16.1124C30.5302 16.1934 30.5582 16.2879 30.5582 16.3844C30.5582 16.481 30.5302 16.5755 30.4777 16.6565C30.4251 16.7375 30.3503 16.8016 30.2621 16.841L5.89388 27.8281C5.80014 27.8686 5.69623 27.8794 5.59614 27.8591C5.49605 27.8389 5.40458 27.7884 5.33402 27.7146C5.26346 27.6407 5.2172 27.5471 5.20146 27.4462C5.18573 27.3453 5.20127 27.2419 5.246 27.1501L9.60752 16.8312C9.67681 16.6925 9.71289 16.5395 9.71289 16.3844C9.71289 16.2293 9.67681 16.0764 9.60752 15.9376L5.24334 5.62138C5.1972 5.52923 5.18067 5.42507 5.196 5.32315C5.21133 5.22124 5.25778 5.12655 5.32899 5.05205C5.4002 4.97755 5.4927 4.92687 5.59382 4.90696C5.69494 4.88704 5.79974 4.89886 5.89388 4.94079V4.94079Z" stroke="#BDBDBD" stroke-linecap="round" stroke-linejoin="round"/>
<path d="M30 16.3516L9.99963 16.6488" stroke="#BDBDBD" stroke-linecap="round" stroke-linejoin="round"/>
</g>
<defs>
<clipPath id="clip0">
<rect width="32" height="32" fill="white"/>
</clipPath>
</defs>
</svg>
