<svg width="46" height="46" viewBox="0 0 46 46" fill="none" xmlns="http://www.w3.org/2000/svg">
<circle cx="23" cy="23" r="22.5" fill="white" stroke="#BDBDBD"/>
<path d="M27.5997 17.7163L26.2271 15.5476C25.9379 15.2104 25.5413 15 25.0969 15H20.3531C19.9087 15 19.5121 15.2104 19.2229 15.5476L17.8503 17.7163C17.561 18.054 17.1882 18.3 16.7438 18.3H13.65C13.2124 18.3 12.7927 18.4738 12.4833 18.7833C12.1738 19.0927 12 19.5124 12 19.95V29.85C12 30.2876 12.1738 30.7073 12.4833 31.0167C12.7927 31.3262 13.2124 31.5 13.65 31.5H31.8C32.2376 31.5 32.6573 31.3262 32.9667 31.0167C33.2762 30.7073 33.45 30.2876 33.45 29.85V19.95C33.45 19.5124 33.2762 19.0927 32.9667 18.7833C32.6573 18.4738 32.2376 18.3 31.8 18.3H28.7578C28.3118 18.3 27.889 18.054 27.5997 17.7163Z" stroke="#BDBDBD" stroke-linecap="round" stroke-linejoin="round"/>
<path d="M22.7256 28.2009C25.0038 28.2009 26.8506 26.3541 26.8506 24.0759C26.8506 21.7978 25.0038 19.9509 22.7256 19.9509C20.4474 19.9509 18.6006 21.7978 18.6006 24.0759C18.6006 26.3541 20.4474 28.2009 22.7256 28.2009Z" stroke="#BDBDBD" stroke-miterlimit="10"/>
<path d="M15.9182 18.1969V17.0625H14.6807V18.1969" stroke="#BDBDBD" stroke-linecap="round" stroke-linejoin="round"/>
</svg>
