<svg width="22" height="26" viewBox="0 0 22 26" fill="none" xmlns="http://www.w3.org/2000/svg">
<path d="M2.93926e-05 24.2375V1.76252V24.2375ZM2.93926e-05 24.2375C-0.00176652 24.5483 0.0787666 24.8541 0.233366 25.1233C0.387965 25.3926 0.611064 25.6157 0.87978 25.7697C1.1485 25.9238 1.45316 26.0032 1.76251 25.9999C2.07185 25.9966 2.37476 25.9106 2.64014 25.7509L2.93926e-05 24.2375ZM0.500029 1.76252H0.500038L0.500021 1.75963C0.498735 1.537 0.55642 1.31817 0.666978 1.12561C0.777527 0.933067 0.936876 0.773848 1.12844 0.664038C1.31999 0.554238 1.53696 0.49771 1.75714 0.500071C1.97705 0.502429 2.19252 0.563446 2.38154 0.677065C2.38178 0.677209 2.38202 0.677352 2.38226 0.677496L20.8938 11.9147C20.894 11.9148 20.8943 11.9149 20.8945 11.9151C21.079 12.0282 21.2317 12.1871 21.3378 12.377C21.4441 12.5671 21.5 12.7817 21.5 13C21.5 13.2183 21.4441 13.4329 21.3378 13.623C21.2317 13.8129 21.079 13.9718 20.8945 14.0849C20.8943 14.0851 20.894 14.0852 20.8938 14.0853L2.38226 25.3225C2.38201 25.3227 2.38176 25.3228 2.3815 25.323C2.1925 25.4366 1.97703 25.4976 1.75714 25.4999C1.53696 25.5023 1.31998 25.4458 1.12844 25.336C0.936877 25.2262 0.777527 25.0669 0.666978 24.8744C0.55642 24.6818 0.498735 24.463 0.500029 24.2404V24.2375V1.76252Z" stroke="white"/>
</svg>
