<svg width="11" height="30" viewBox="0 0 11 30" fill="none" xmlns="http://www.w3.org/2000/svg">
<path d="M0.990292 23.1326L1.00204 23.1498L5.24999 29.3463L9.49106 23.1591L9.50487 23.139L9.52058 23.1203C9.52759 23.1119 9.53998 23.0949 9.55522 23.0661C9.68659 22.8141 9.79937 22.4885 9.87869 22.1066C9.95784 21.7255 9.99975 21.3073 10 20.8811L10 3.21835C9.99959 2.41712 9.85256 1.67389 9.61362 1.15162C9.35838 0.59374 9.10957 0.500525 9.02692 0.5C9.02678 0.5 9.02663 0.499998 9.02649 0.499998H1.47351C1.47337 0.499998 1.47322 0.5 1.47308 0.5C1.39043 0.500525 1.14161 0.59374 0.88638 1.15162C0.647464 1.67384 0.500439 2.41696 0.5 3.2181L0.990292 23.1326ZM0.990292 23.1326L0.977164 23.1165M0.990292 23.1326L0.977164 23.1165M0.977164 23.1165C0.970354 23.1082 0.95871 23.0917 0.944492 23.0645M0.977164 23.1165L0.944492 23.0645M0.944492 23.0645C0.813084 22.8122 0.700318 22.4863 0.621047 22.1042C0.542076 21.7234 0.500259 21.3057 0.5 20.88C0.5 20.8799 0.5 20.8798 0.5 20.8797M0.944492 23.0645L0.5 20.8797M0.5 20.8797L0.5 3.21824L0.5 20.8797Z" fill="white" stroke="#333333"/>
</svg>
