<svg width="30" height="30" viewBox="0 0 30 30" fill="none" xmlns="http://www.w3.org/2000/svg">
<path d="M23.25 8.27499C21.45 8.27499 19.75 8.97499 18.5375 10.1875L9.75 17.9875C8.95 18.7875 7.8875 19.225 6.75 19.225C4.4125 19.225 2.5 17.3375 2.5 15C2.5 12.6625 4.4125 10.775 6.75 10.775C7.8875 10.775 8.95 11.2125 9.8 12.0625L11.2125 13.3125L13.125 11.6375L11.525 10.25C10.899 9.62165 10.1547 9.1236 9.33516 8.78461C8.51557 8.44561 7.63693 8.2724 6.75 8.27499C3.025 8.27499 0 11.3 0 15C0 18.7 3.025 21.725 6.75 21.725C8.55 21.725 10.25 21.025 11.4625 19.8125L20.25 12.0125C21.05 11.2125 22.1125 10.775 23.25 10.775C25.5875 10.775 27.5 12.6625 27.5 15C27.5 17.3375 25.5875 19.225 23.25 19.225C22.125 19.225 21.05 18.7875 20.2 17.9375L18.75 16.675L16.875 18.35L18.475 19.75C19.1027 20.3752 19.8475 20.8704 20.6669 21.2071C21.4863 21.5439 22.3641 21.7156 23.25 21.7125C26.975 21.7125 30 18.7 30 15C30 11.25 26.975 8.27499 23.25 8.27499Z" fill="#F37474"/>
</svg>
