<svg width="318" height="142" viewBox="0 0 318 142" fill="none" xmlns="http://www.w3.org/2000/svg">
<path d="M246.45 0.000301516C227.37 0.000301516 209.35 7.39062 196.497 20.1917L103.35 102.541C94.87 110.987 83.6075 115.606 71.55 115.606C46.7725 115.606 26.5 95.6785 26.5 71.0002C26.5 46.3218 46.7725 26.3943 71.55 26.3943C83.6075 26.3943 94.87 31.0132 103.88 39.9872L118.853 53.1842L139.125 35.5002L122.165 20.8516C115.53 14.2178 107.64 8.95954 98.9527 5.38059C90.265 1.80164 80.9514 -0.0270121 71.55 0.000301516C32.065 0.000301516 0 31.937 0 71.0002C0 110.063 32.065 142 71.55 142C90.63 142 108.65 134.61 121.503 121.809L214.65 39.4593C223.13 31.0132 234.393 26.3943 246.45 26.3943C271.228 26.3943 291.5 46.3218 291.5 71.0002C291.5 95.6785 271.228 115.606 246.45 115.606C234.525 115.606 223.13 110.987 214.12 102.013L198.75 88.6841L178.875 106.368L195.835 121.149C202.488 127.749 210.384 132.977 219.069 136.532C227.755 140.088 237.06 141.901 246.45 141.868C285.935 141.868 318 110.063 318 71.0002C318 31.4092 285.935 0.000301516 246.45 0.000301516Z" fill="#F37474" fill-opacity="0.2"/>
</svg>
