<svg width="30" height="30" viewBox="0 0 30 30" fill="none" xmlns="http://www.w3.org/2000/svg">
<path d="M15 0.5C23.0051 0.5 29.5 6.99489 29.5 15C29.5 23.0051 23.0051 29.5 15 29.5C6.99489 29.5 0.5 23.0051 0.5 15C0.5 6.99489 6.99489 0.5 15 0.5Z" stroke="#333333" stroke-miterlimit="10"/>
<path d="M20.0127 11.5926L19.3465 10.8175C18.4355 9.86355 17.2379 9.23315 15.9358 9.02205C14.6338 8.81094 13.2984 9.03068 12.1326 9.64786C10.9668 10.265 10.0344 11.2459 9.47698 12.4414C8.9196 13.637 8.76773 14.9818 9.04446 16.2715C9.3212 17.5612 10.0114 18.7254 11.0102 19.587C12.009 20.4486 13.2617 20.9606 14.5781 21.0452C15.8945 21.1298 17.2024 20.7823 18.3033 20.0556C19.4041 19.3289 20.2377 18.2627 20.6772 17.019" stroke="#333333" stroke-miterlimit="10" stroke-linecap="round"/>
<path d="M21.5228 9.49216C21.4573 9.49243 21.3925 9.50573 21.3321 9.53128C21.2718 9.55683 21.2171 9.59412 21.1713 9.64098L17.6826 13.1296C17.6118 13.2002 17.5636 13.2901 17.544 13.3881C17.5244 13.4861 17.5343 13.5877 17.5725 13.68C17.6108 13.7724 17.6756 13.8513 17.7587 13.9067C17.8418 13.9622 17.9395 13.9917 18.0395 13.9916H21.5281C21.6621 13.9916 21.7905 13.9383 21.8853 13.8436C21.98 13.7489 22.0332 13.6204 22.0332 13.4865V9.99665C22.0334 9.92995 22.0203 9.86389 21.9947 9.80227C21.9692 9.74066 21.9317 9.68472 21.8844 9.6377C21.8371 9.59068 21.781 9.5535 21.7192 9.52831C21.6574 9.50313 21.5913 9.49044 21.5246 9.49098L21.5228 9.49216Z" fill="#333333"/>
</svg>
