<svg width="28" height="22" viewBox="0 0 28 22" fill="none" xmlns="http://www.w3.org/2000/svg">
<path d="M24.6665 0.333008H3.33317C1.8665 0.333008 0.666504 1.53301 0.666504 2.99967V18.9997C0.666504 20.4663 1.8665 21.6663 3.33317 21.6663H24.6665C26.1332 21.6663 27.3332 20.4663 27.3332 18.9997V2.99967C27.3332 1.53301 26.1332 0.333008 24.6665 0.333008ZM24.1332 5.99967L15.4132 11.453C14.5465 11.9997 13.4532 11.9997 12.5865 11.453L3.8665 5.99967C3.73281 5.92462 3.61573 5.82322 3.52236 5.70161C3.42898 5.58 3.36125 5.44071 3.32327 5.29217C3.28529 5.14363 3.27784 4.98892 3.30138 4.83742C3.32492 4.68591 3.37895 4.54076 3.46021 4.41074C3.54147 4.28073 3.64827 4.16855 3.77414 4.081C3.90001 3.99345 4.04233 3.93236 4.1925 3.90141C4.34266 3.87046 4.49755 3.8703 4.64778 3.90094C4.79801 3.93158 4.94045 3.99238 5.0665 4.07967L13.9998 9.66634L22.9332 4.07967C23.0592 3.99238 23.2017 3.93158 23.3519 3.90094C23.5021 3.8703 23.657 3.87046 23.8072 3.90141C23.9573 3.93236 24.0997 3.99345 24.2255 4.081C24.3514 4.16855 24.4582 4.28073 24.5395 4.41074C24.6207 4.54076 24.6748 4.68591 24.6983 4.83742C24.7218 4.98892 24.7144 5.14363 24.6764 5.29217C24.6384 5.44071 24.5707 5.58 24.4773 5.70161C24.3839 5.82322 24.2669 5.92462 24.1332 5.99967Z" fill="#6EA7F4"/>
</svg>
