<svg width="22" height="22" viewBox="0 0 22 22" fill="none" xmlns="http://www.w3.org/2000/svg">
<path d="M11.295 8.01453C10.6795 7.95374 10.0602 8.08469 9.522 8.38945C8.98377 8.69421 8.5529 9.15788 8.28838 9.71698C8.02385 10.2761 7.9386 10.9033 8.0443 11.5127C8.15001 12.1221 8.44149 12.684 8.87885 13.1213C9.31621 13.5587 9.87806 13.8502 10.4875 13.9559C11.0969 14.0616 11.7241 13.9763 12.2832 13.7118C12.8423 13.4473 13.306 13.0164 13.6107 12.4782C13.9155 11.94 14.0464 11.3207 13.9856 10.7052C13.9163 10.0151 13.6106 9.37031 13.1202 8.87995C12.6299 8.38958 11.985 8.08384 11.295 8.01453V8.01453ZM18.5185 11C18.5165 11.3261 18.4926 11.6517 18.4467 11.9745L20.566 13.6367C20.6582 13.7132 20.7204 13.8199 20.7414 13.9379C20.7625 14.056 20.741 14.1776 20.6808 14.2812L18.676 17.75C18.6151 17.8527 18.5199 17.9305 18.4072 17.9699C18.2945 18.0093 18.1716 18.0076 18.06 17.9652L15.9553 17.1177C15.8393 17.0714 15.7136 17.0547 15.5895 17.0691C15.4653 17.0834 15.3467 17.1283 15.2442 17.1997C14.923 17.4209 14.5855 17.6174 14.2346 17.7875C14.1242 17.8411 14.0288 17.9211 13.9567 18.0203C13.8846 18.1196 13.838 18.2351 13.8211 18.3566L13.5056 20.6014C13.4849 20.72 13.4237 20.8276 13.3324 20.906C13.2411 20.9844 13.1253 21.0287 13.005 21.0312H8.99533C8.87699 21.0292 8.76288 20.9869 8.6718 20.9113C8.58071 20.8357 8.51809 20.7314 8.49424 20.6155L8.17924 18.3739C8.16155 18.2511 8.11378 18.1345 8.04018 18.0346C7.96658 17.9346 7.86943 17.8544 7.75737 17.8011C7.40684 17.6319 7.07045 17.4349 6.75143 17.2119C6.64929 17.1408 6.53106 17.0963 6.40742 17.0823C6.28377 17.0683 6.15859 17.0853 6.04315 17.1317L3.93893 17.9788C3.82742 18.0212 3.7045 18.023 3.59182 17.9837C3.47915 17.9444 3.38395 17.8666 3.32299 17.7641L1.31815 14.2953C1.25787 14.1917 1.23633 14.07 1.25736 13.952C1.27839 13.834 1.34063 13.7272 1.43299 13.6508L3.22408 12.2445C3.32221 12.1666 3.39933 12.0655 3.44845 11.9502C3.49756 11.835 3.51712 11.7093 3.50533 11.5845C3.48846 11.3891 3.47815 11.1941 3.47815 10.9986C3.47815 10.8031 3.48799 10.6109 3.50533 10.4197C3.51583 10.2957 3.49531 10.1711 3.44564 10.057C3.39597 9.94294 3.31871 9.84302 3.2208 9.76625L1.43065 8.36C1.33978 8.28317 1.27886 8.17681 1.25855 8.05957C1.23824 7.94232 1.25983 7.82167 1.31955 7.71875L3.3244 4.25C3.38528 4.14734 3.48045 4.06946 3.59313 4.0301C3.70581 3.99074 3.82877 3.99242 3.94033 4.03484L6.04502 4.88234C6.16109 4.92856 6.2868 4.94525 6.41091 4.93094C6.53501 4.91662 6.65362 4.87174 6.75612 4.80031C7.07733 4.57912 7.41486 4.38262 7.7658 4.2125C7.87614 4.15887 7.97157 4.07891 8.04367 3.97966C8.11578 3.88042 8.16234 3.76494 8.17924 3.64344L8.49471 1.39859C8.51543 1.28004 8.57668 1.17236 8.66799 1.09396C8.7593 1.01555 8.87501 0.971298 8.99533 0.96875H13.005C13.1234 0.970797 13.2375 1.01309 13.3286 1.08867C13.4196 1.16425 13.4823 1.2686 13.5061 1.38453L13.8211 3.62609C13.8388 3.74894 13.8866 3.86551 13.9602 3.96544C14.0338 4.06537 14.1309 4.14557 14.243 4.19891C14.5935 4.3681 14.9299 4.56514 15.2489 4.78813C15.3511 4.85919 15.4693 4.90373 15.5929 4.91772C15.7166 4.93172 15.8418 4.91473 15.9572 4.86828L18.0614 4.02125C18.1729 3.97879 18.2959 3.97704 18.4085 4.01631C18.5212 4.05558 18.6164 4.13336 18.6774 4.23594L20.6822 7.70469C20.7425 7.80832 20.764 7.92999 20.743 8.04802C20.722 8.16604 20.6597 8.27278 20.5674 8.34922L18.7763 9.75547C18.6777 9.83311 18.6001 9.93416 18.5506 10.0494C18.5011 10.1647 18.4812 10.2905 18.4927 10.4155C18.5081 10.6095 18.5185 10.8045 18.5185 11Z" stroke="white" stroke-linecap="round" stroke-linejoin="round"/>
</svg>
