<svg width="18" height="18" viewBox="0 0 18 18" fill="none" xmlns="http://www.w3.org/2000/svg">
<path d="M3.75 2.25H8.25C8.84674 2.25 9.41903 2.48705 9.84099 2.90901C10.2629 3.33097 10.5 3.90326 10.5 4.5V7.5H9.75V4.5C9.75 4.10218 9.59196 3.72064 9.31066 3.43934C9.02936 3.15804 8.64782 3 8.25 3H3.75C3.35218 3 2.97064 3.15804 2.68934 3.43934C2.40804 3.72064 2.25 4.10218 2.25 4.5V14.25C2.25 14.6478 2.40804 15.0294 2.68934 15.3107C2.97064 15.592 3.35218 15.75 3.75 15.75H8.25C8.64782 15.75 9.02936 15.592 9.31066 15.3107C9.59196 15.0294 9.75 14.6478 9.75 14.25V11.25H10.5V14.25C10.5 14.8467 10.2629 15.419 9.84099 15.841C9.41903 16.2629 8.84674 16.5 8.25 16.5H3.75C3.15326 16.5 2.58097 16.2629 2.15901 15.841C1.73705 15.419 1.5 14.8467 1.5 14.25V4.5C1.5 3.90326 1.73705 3.33097 2.15901 2.90901C2.58097 2.48705 3.15326 2.25 3.75 2.25ZM6 9H14.4375L12 6.5625L12.498 6L15.873 9.375L12.498 12.75L12 12.1875L14.4375 9.75H6V9Z" fill="#333333"/>
</svg>
