<svg width="304" height="107" viewBox="0 0 304 107" fill="none" xmlns="http://www.w3.org/2000/svg">
<path d="M62.6167 58.4138C62.6167 51.0155 59.2112 44.7214 51.4116 40.3044C45.4795 36.8813 38.6686 34.8937 31.4182 32.6852C24.3876 30.5872 17.4668 28.0475 17.4668 21.4221C17.4668 15.5697 22.52 11.1527 31.5281 11.1527C38.0094 11.1527 45.2598 14.1342 51.9609 22.0846C52.1806 22.3055 52.4003 22.4159 52.7299 22.4159C52.9496 22.4159 53.1693 22.4159 53.389 22.195L60.6393 14.355C60.859 14.1342 60.9689 13.9133 60.9689 13.6925C60.9689 13.4716 60.7492 13.2508 60.6393 13.0299C52.8397 3.86481 43.612 0 31.6379 0C13.4022 0 3.40547 11.5944 3.40547 23.6305C3.40547 29.8142 5.93211 35.7771 12.0839 40.0836C17.0274 43.5067 23.3989 45.7152 30.6492 47.5924C38.4489 49.6904 47.6766 52.7822 47.6766 60.4014C47.6766 66.033 42.4036 71.0021 31.6379 71.0021C23.9481 71.0021 15.9288 65.8122 10.546 58.0826C10.3263 57.8617 9.9967 57.5304 9.66714 57.5304C9.44743 57.5304 9.33758 57.5304 9.22773 57.6409L0.329562 64.4871C0 64.7079 0 64.9288 0 65.2601C0 65.4809 0 65.7018 0.109854 65.8122C7.36021 76.8545 18.016 82.2652 31.6379 82.2652C49.7638 82.2652 62.6167 72.6584 62.6167 58.4138Z" fill="#333333"/>
<path d="M124.704 55.4324C124.704 40.7461 115.037 29.0413 98.6685 29.0413C82.9594 29.0413 72.5233 40.0836 72.5233 55.4324C72.5233 70.1187 82.3003 82.0444 98.6685 82.0444C115.037 82.0444 124.704 70.1187 124.704 55.4324ZM111.521 55.322C111.521 65.2601 106.798 72.6584 98.5587 72.6584C90.759 72.6584 85.8156 65.4809 85.8156 55.5428C85.8156 46.3777 90.2098 38.4272 98.7784 38.4272C106.798 38.4272 111.521 44.7214 111.521 55.322Z" fill="#333333"/>
<path d="M174.022 45.3839C174.022 40.3044 172.814 35.6667 169.189 32.4644C166.882 30.4768 163.916 29.2621 160.4 29.2621C155.237 29.2621 150.623 31.8019 147.438 36.5501L146.779 31.3602C146.669 30.6976 146.229 30.3664 145.68 30.3664H135.793C135.244 30.3664 134.804 30.808 134.804 31.3602V79.7255C134.804 80.2776 135.244 80.7193 135.793 80.7193H146.888C147.438 80.7193 147.877 80.2776 147.877 79.7255V50.1321C147.877 41.1878 153.15 38.5377 156.446 38.5377C161.169 38.5377 162.048 42.8442 162.378 45.936C162.488 46.4881 162.927 46.9298 163.366 46.9298H163.586L173.143 46.4881C173.583 46.4881 174.022 45.936 174.022 45.3839Z" fill="#333333"/>
<path d="M221.654 45.3839C221.654 40.3044 220.446 35.6667 216.821 32.4644C214.514 30.4768 211.548 29.2621 208.032 29.2621C202.869 29.2621 198.255 31.8019 195.07 36.5501L194.41 31.3602C194.301 30.6976 193.861 30.3664 193.312 30.3664H183.425C182.876 30.3664 182.436 30.808 182.436 31.3602V79.7255C182.436 80.2776 182.876 80.7193 183.425 80.7193H194.52C195.07 80.7193 195.509 80.2776 195.509 79.7255V50.1321C195.509 41.1878 200.782 38.5377 204.078 38.5377C208.801 38.5377 209.68 42.8442 210.01 45.936C210.12 46.4881 210.559 46.9298 210.998 46.9298H211.218L220.775 46.4881C221.215 46.4881 221.654 45.936 221.654 45.3839Z" fill="#333333"/>
<path d="M277.461 31.1393C277.461 30.6976 277.351 30.3664 276.692 30.3664H267.904C267.244 30.3664 266.805 30.808 266.585 31.3602L253.623 67.5789L241.539 31.3602C241.319 30.808 240.77 30.3664 240.22 30.3664H228.576C228.027 30.3664 227.587 30.5872 227.587 31.1393C227.587 31.2497 227.697 31.4706 227.697 31.581L244.285 78.0691C244.505 78.7317 244.944 79.9463 245.274 81.161C245.603 82.2652 245.713 83.1486 245.713 84.032C245.713 85.5779 245.274 87.0134 244.505 88.8906C243.077 92.3137 240.88 96.6202 236.595 96.6202C234.618 96.6202 232.64 96.0681 231.322 95.7368C230.993 95.6264 230.663 95.516 230.443 95.516C230.114 95.516 229.674 95.7368 229.565 96.1785L227.477 103.908C227.367 104.35 227.258 104.571 227.258 104.681C227.258 105.012 227.477 105.344 227.917 105.565C230.224 106.448 232.97 107 236.046 107C249.778 107 253.293 95.6264 257.358 84.9154L277.351 31.8019C277.461 31.581 277.461 31.3602 277.461 31.1393Z" fill="#333333"/>
<path d="M304 2.65015C304 1.98761 303.561 1.54592 303.011 1.54592H288.62C288.071 1.54592 287.632 1.98761 287.632 2.65015C288.511 14.1342 288.84 39.5315 289.719 56.4262V57.5304C289.719 58.0826 290.268 58.5243 290.708 58.5243H300.924C301.473 58.5243 301.913 58.0826 301.913 57.5304V56.4262C302.792 39.5315 303.121 14.1342 304 2.65015ZM303.341 79.7255V66.1434C303.341 65.5913 303.011 65.0392 302.462 65.0392H289.17C288.62 65.0392 288.071 65.5913 288.071 66.1434V79.7255C288.071 80.2776 288.62 80.7193 289.17 80.7193H302.462C303.011 80.7193 303.341 80.2776 303.341 79.7255Z" fill="#333333"/>
</svg>
