<svg width="34" height="34" viewBox="0 0 34 34" fill="none" xmlns="http://www.w3.org/2000/svg">
<path d="M25.6794 32.1111C25.262 32.1108 24.8543 31.9858 24.5083 31.7523L17.4628 27.03C17.4281 27.0061 17.3869 26.9932 17.3447 26.9932C17.3025 26.9932 17.2614 27.0061 17.2267 27.03L10.1811 31.7523C9.8273 31.9885 9.41001 32.1115 8.98465 32.105C8.55928 32.0985 8.14597 31.9627 7.79958 31.7157C7.4532 31.4687 7.19014 31.1222 7.04534 30.7222C6.90054 30.3222 6.88084 29.8876 6.98887 29.4761L9.30276 21.3161C9.3137 21.2751 9.31237 21.2318 9.29895 21.1915C9.28552 21.1512 9.26058 21.1157 9.22721 21.0895L2.55943 15.8478C2.20841 15.5863 1.94804 15.2215 1.81481 14.8046C1.68159 14.3876 1.68219 13.9395 1.81654 13.5229C1.95088 13.1063 2.21224 12.7422 2.56395 12.4817C2.91567 12.2211 3.34011 12.0772 3.77776 12.07L12.2778 11.7489C12.3196 11.746 12.3596 11.7311 12.3931 11.706C12.4266 11.6809 12.4522 11.6466 12.4667 11.6073L15.3944 3.64559C15.542 3.24197 15.81 2.89345 16.1623 2.64722C16.5145 2.40098 16.9338 2.26892 17.3636 2.26892C17.7933 2.26892 18.2127 2.40098 18.5649 2.64722C18.9171 2.89345 19.1852 3.24197 19.3328 3.64559L22.2605 11.6073C22.275 11.6466 22.3005 11.6809 22.3341 11.706C22.3676 11.7311 22.4076 11.746 22.4494 11.7489L30.9494 12.07C31.3871 12.0772 31.8115 12.2211 32.1632 12.4817C32.515 12.7422 32.7763 13.1063 32.9107 13.5229C33.045 13.9395 33.0456 14.3876 32.9124 14.8046C32.7792 15.2215 32.5188 15.5863 32.1678 15.8478L25.5 21.0895C25.4656 21.1149 25.4399 21.1503 25.4264 21.1909C25.4128 21.2314 25.4122 21.2752 25.4244 21.3161L27.7383 29.4761C27.8195 29.7891 27.8276 30.1166 27.7619 30.4332C27.6961 30.7498 27.5584 31.0471 27.3593 31.3019C27.1602 31.5567 26.9051 31.7622 26.6138 31.9025C26.3225 32.0429 26.0028 32.1143 25.6794 32.1111ZM17.3494 25.1034C17.7677 25.1162 18.1724 25.2544 18.5111 25.5L25.5567 30.2223C25.5924 30.2494 25.6359 30.2643 25.6807 30.2646C25.7256 30.265 25.7693 30.2508 25.8055 30.2242C25.8416 30.1977 25.8682 30.1601 25.8812 30.1172C25.8942 30.0743 25.893 30.0283 25.8778 29.9861L23.5639 21.8261C23.45 21.4259 23.4584 21.0007 23.588 20.6052C23.7176 20.2097 23.9624 19.862 24.2911 19.6067L30.9589 14.365C30.9952 14.3395 31.0225 14.3029 31.0365 14.2608C31.0506 14.2186 31.0508 14.1731 31.0371 14.1308C31.0233 14.0885 30.9964 14.0518 30.9602 14.0259C30.924 14.0001 30.8805 13.9865 30.8361 13.9873L22.3361 13.6661C21.9199 13.6499 21.518 13.5101 21.1815 13.2645C20.8451 13.0189 20.5895 12.6787 20.4472 12.2873L17.5194 4.32559C17.5062 4.28332 17.4799 4.24637 17.4442 4.22013C17.4085 4.1939 17.3654 4.17975 17.3211 4.17975C17.2768 4.17975 17.2337 4.1939 17.198 4.22013C17.1623 4.24637 17.136 4.28332 17.1228 4.32559L14.2233 12.2778C14.081 12.6693 13.8254 13.0095 13.489 13.2551C13.1526 13.5007 12.7506 13.6405 12.3344 13.6567L3.83443 13.9778C3.78998 13.9771 3.74648 13.9907 3.71031 14.0165C3.67414 14.0423 3.64721 14.0791 3.63347 14.1213C3.61973 14.1636 3.61991 14.2092 3.63398 14.2513C3.64805 14.2935 3.67528 14.33 3.71165 14.3556L10.3889 19.6067C10.7165 19.8628 10.9606 20.2106 11.0901 20.6058C11.2196 21.001 11.2287 21.4258 11.1161 21.8261L8.81165 29.9861C8.7979 30.027 8.79783 30.0712 8.81146 30.1121C8.8251 30.153 8.85169 30.1884 8.88721 30.2128C8.92142 30.2421 8.96496 30.2582 9.00998 30.2582C9.05501 30.2582 9.09855 30.2421 9.13276 30.2128L16.1783 25.4906C16.5226 25.2622 16.9268 25.1406 17.34 25.1411L17.3494 25.1034Z" fill="#6EA7F4"/>
<line x1="4.52936" y1="5.89473" x2="29.7508" y2="27.8194" stroke="white" stroke-width="5" stroke-linecap="round"/>
<path d="M2.17013 3.92945L32.4767 29.8815" stroke="#6EA7F4" stroke-width="2" stroke-linecap="round"/>
</svg>
