<svg width="29" height="28" viewBox="0 0 29 28" fill="none" xmlns="http://www.w3.org/2000/svg">
<path d="M22.2056 27.9999C21.8189 27.9995 21.441 27.8823 21.1204 27.6632L14.5919 23.2325C14.5597 23.21 14.5216 23.198 14.4825 23.198C14.4434 23.198 14.4053 23.21 14.3731 23.2325L7.84455 27.6632C7.51671 27.8848 7.13005 28.0003 6.7359 27.9941C6.34174 27.988 5.95876 27.8606 5.63779 27.6289C5.31683 27.3972 5.07307 27.0721 4.93889 26.6967C4.80472 26.3214 4.78647 25.9136 4.88657 25.5276L7.03067 17.8713C7.0408 17.8328 7.03957 17.7922 7.02713 17.7544C7.01469 17.7166 6.99158 17.6833 6.96066 17.6587L0.782156 12.7406C0.456899 12.4952 0.215631 12.153 0.0921803 11.7618C-0.0312699 11.3706 -0.0307114 10.9501 0.0937776 10.5592C0.218267 10.1683 0.460443 9.82672 0.786351 9.58226C1.11226 9.3378 1.50555 9.20275 1.91109 9.19604L9.78736 8.89475C9.82609 8.89205 9.86322 8.87806 9.89427 8.85448C9.92532 8.83089 9.94898 8.79872 9.96239 8.76183L12.6753 1.29168C12.8121 0.912981 13.0604 0.585976 13.3868 0.354941C13.7132 0.123906 14.1018 0 14.5 0C14.8982 0 15.2868 0.123906 15.6132 0.354941C15.9396 0.585976 16.1879 0.912981 16.3247 1.29168L19.0376 8.76183C19.051 8.79872 19.0747 8.83089 19.1057 8.85448C19.1368 8.87806 19.1739 8.89205 19.2126 8.89475L27.0889 9.19604C27.4944 9.20275 27.8877 9.3378 28.2136 9.58226C28.5396 9.82672 28.7817 10.1683 28.9062 10.5592C29.0307 10.9501 29.0313 11.3706 28.9078 11.7618C28.7844 12.153 28.5431 12.4952 28.2178 12.7406L22.0393 17.6587C22.0075 17.6825 21.9837 17.7157 21.9711 17.7538C21.9586 17.7919 21.958 17.8329 21.9693 17.8713L24.1134 25.5276C24.1887 25.8212 24.1962 26.1285 24.1353 26.4256C24.0743 26.7226 23.9467 27.0015 23.7622 27.2406C23.5777 27.4797 23.3414 27.6725 23.0714 27.8042C22.8015 27.9359 22.5052 28.0028 22.2056 27.9999ZM14.4869 21.4248C14.8744 21.4368 15.2494 21.5664 15.5633 21.7969L22.0919 26.2276C22.1249 26.2531 22.1653 26.267 22.2068 26.2674C22.2484 26.2677 22.2889 26.2544 22.3224 26.2295C22.3559 26.2046 22.3805 26.1693 22.3926 26.1291C22.4047 26.0888 22.4035 26.0457 22.3894 26.0061L20.2453 18.3499C20.1398 17.9743 20.1476 17.5753 20.2677 17.2043C20.3877 16.8332 20.6146 16.507 20.9192 16.2674L27.0977 11.3494C27.1314 11.3254 27.1566 11.2911 27.1696 11.2515C27.1827 11.212 27.1828 11.1692 27.1701 11.1296C27.1574 11.0899 27.1324 11.0554 27.0989 11.0312C27.0654 11.0069 27.0251 10.9942 26.9839 10.9949L19.1076 10.6936C18.722 10.6784 18.3495 10.5472 18.0378 10.3168C17.7261 10.0864 17.4892 9.76715 17.3573 9.39985L14.6444 1.9297C14.6322 1.89004 14.6077 1.85537 14.5747 1.83075C14.5416 1.80614 14.5017 1.79286 14.4606 1.79286C14.4196 1.79286 14.3796 1.80614 14.3466 1.83075C14.3135 1.85537 14.2891 1.89004 14.2768 1.9297L11.5902 9.39099C11.4583 9.75829 11.2214 10.0775 10.9097 10.3079C10.598 10.5383 10.2255 10.6695 9.83987 10.6848L1.9636 10.986C1.92241 10.9854 1.88211 10.9981 1.84859 11.0223C1.81507 11.0466 1.79012 11.081 1.77739 11.1207C1.76466 11.1604 1.76482 11.2031 1.77786 11.2427C1.7909 11.2822 1.81612 11.3165 1.84983 11.3405L8.03708 16.2674C8.3407 16.5077 8.56689 16.834 8.68688 17.2048C8.80687 17.5756 8.81525 17.9742 8.71094 18.3499L6.57559 26.0061C6.56285 26.0444 6.56279 26.0859 6.57542 26.1243C6.58805 26.1627 6.61269 26.1958 6.6456 26.2188C6.67731 26.2462 6.71765 26.2613 6.75937 26.2613C6.80109 26.2613 6.84144 26.2462 6.87314 26.2188L13.4017 21.7881C13.7208 21.5738 14.0952 21.4597 14.4781 21.4602L14.4869 21.4248Z" fill="#6EA7F4"/>
</svg>
