<svg width="34" height="34" viewBox="0 0 34 34" fill="none" xmlns="http://www.w3.org/2000/svg">
<path d="M7.4375 7.4375L8.76562 28.6875C8.82871 29.9154 9.72187 30.8125 10.8906 30.8125H23.1094C24.2828 30.8125 25.1593 29.9154 25.2344 28.6875L26.5625 7.4375" stroke="#BDBDBD" stroke-linecap="round" stroke-linejoin="round"/>
<path d="M21.7812 11.6875L21.25 26.5625" stroke="#BDBDBD" stroke-linecap="round" stroke-linejoin="round"/>
<path d="M17 11.6875V26.5625" stroke="#BDBDBD" stroke-linecap="round" stroke-linejoin="round"/>
<path d="M12.2188 11.6875L12.75 26.5625" stroke="#BDBDBD" stroke-linecap="round" stroke-linejoin="round"/>
<path d="M5.3125 7.4375H28.6875" stroke="#BDBDBD" stroke-miterlimit="10" stroke-linecap="round"/>
<path d="M12.75 7.43751V4.78126C12.7494 4.57179 12.7902 4.36427 12.8701 4.17063C12.95 3.97699 13.0673 3.80105 13.2154 3.65294C13.3636 3.50482 13.5395 3.38745 13.7331 3.30757C13.9268 3.2277 14.1343 3.18689 14.3438 3.18751H19.6563C19.8657 3.18689 20.0733 3.2277 20.2669 3.30757C20.4605 3.38745 20.6365 3.50482 20.7846 3.65294C20.9327 3.80105 21.0501 3.97699 21.13 4.17063C21.2098 4.36427 21.2506 4.57179 21.25 4.78126V7.43751" stroke="#BDBDBD" stroke-linecap="round" stroke-linejoin="round"/>
</svg>
