<svg width="56" height="56" viewBox="0 0 56 56" fill="none" xmlns="http://www.w3.org/2000/svg">
<path d="M49 28C49 16.4062 39.5938 7 28 7C16.4062 7 7 16.4062 7 28C7 39.5938 16.4062 49 28 49C39.5938 49 49 39.5938 49 28Z" stroke="#333333" stroke-width="2" stroke-miterlimit="10"/>
<path d="M27.3722 18.1616L28 31.4999L28.6268 18.1616C28.6306 18.0764 28.6171 17.9912 28.5869 17.9113C28.5568 17.8315 28.5106 17.7586 28.4514 17.6972C28.3921 17.6358 28.3209 17.5871 28.2422 17.5541C28.1635 17.5211 28.0788 17.5045 27.9935 17.5054V17.5054C27.9091 17.5062 27.8258 17.5239 27.7485 17.5577C27.6712 17.5914 27.6015 17.6403 27.5435 17.7015C27.4855 17.7628 27.4404 17.8351 27.411 17.9142C27.3816 17.9932 27.3684 18.0774 27.3722 18.1616V18.1616Z" stroke="#333333" stroke-width="2" stroke-linecap="round" stroke-linejoin="round"/>
<path d="M28 40.24C27.5674 40.24 27.1444 40.1117 26.7847 39.8713C26.425 39.6309 26.1446 39.2893 25.979 38.8896C25.8134 38.4899 25.7701 38.05 25.8545 37.6257C25.9389 37.2014 26.1473 36.8116 26.4532 36.5057C26.7591 36.1997 27.1489 35.9914 27.5732 35.907C27.9976 35.8226 28.4374 35.8659 28.8371 36.0315C29.2368 36.197 29.5785 36.4774 29.8188 36.8371C30.0592 37.1969 30.1875 37.6198 30.1875 38.0525C30.1875 38.6326 29.957 39.189 29.5468 39.5993C29.1366 40.0095 28.5802 40.24 28 40.24Z" fill="#333333"/>
</svg>
